HIERARCHY
ROOT Hips
{
  OFFSET 7.333 -26.027 -164.856
  CHANNELS 6 Xposition Yposition Zposition Zrotation Xrotation Yrotation
  JOINT LeftUpLeg
  {
    OFFSET 10.092 0.000 0.000
    CHANNELS 6 Xposition Yposition Zposition Zrotation Xrotation Yrotation
    JOINT LeftLeg
    {
      OFFSET 0.000 -38.160 -0.000
    CHANNELS 6 Xposition Yposition Zposition Zrotation Xrotation Yrotation
      JOINT LeftFoot
      {
        OFFSET -0.000 -24.040 0.000
    CHANNELS 6 Xposition Yposition Zposition Zrotation Xrotation Yrotation
        End Site
        {
          OFFSET -0.000 0.000 12.945
        }
      }
    }
  }
  JOINT RightUpLeg
  {
    OFFSET -10.092 -0.000 0.000
    CHANNELS 6 Xposition Yposition Zposition Zrotation Xrotation Yrotation
    JOINT RightLeg
    {
      OFFSET 0.000 -33.046 0.000
    CHANNELS 6 Xposition Yposition Zposition Zrotation Xrotation Yrotation
      JOINT RightFoot
      {
        OFFSET 0.000 -22.031 -0.000
    CHANNELS 6 Xposition Yposition Zposition Zrotation Xrotation Yrotation
        End Site
        {
          OFFSET 0.000 -0.000 11.863
        }
      }
    }
  }
  JOINT Spine
  {
    OFFSET -0.000 16.511 0.000
    CHANNELS 6 Xposition Yposition Zposition Zrotation Xrotation Yrotation
    JOINT LeftShoulder
    {
      OFFSET 0 16.511 0
    CHANNELS 6 Xposition Yposition Zposition Zrotation Xrotation Yrotation
      JOINT LeftArm
      {
        OFFSET 16.337 0.000 0.000
    CHANNELS 6 Xposition Yposition Zposition Zrotation Xrotation Yrotation
        JOINT LeftForeArm
        {
          OFFSET 0.000 -24.030 0.000
    CHANNELS 6 Xposition Yposition Zposition Zrotation Xrotation Yrotation
          JOINT LeftHand
          {
            OFFSET 0.000 -17.629 -0.000
    CHANNELS 6 Xposition Yposition Zposition Zrotation Xrotation Yrotation
            End Site
            {
              OFFSET 0.000 -11.753 -0.000
            }
          }
        }
      }
    }
    JOINT RightShoulder
    {
      OFFSET 0 16.511 0
    CHANNELS 6 Xposition Yposition Zposition Zrotation Xrotation Yrotation
      JOINT RightArm
      {
        OFFSET -16.337 0.000 0.000
    CHANNELS 6 Xposition Yposition Zposition Zrotation Xrotation Yrotation
        JOINT RightForeArm
        {
          OFFSET -0.000 -19.534 0.000
    CHANNELS 6 Xposition Yposition Zposition Zrotation Xrotation Yrotation
          JOINT RightHand
          {
            OFFSET 0.000 -19.514 -0.000
    CHANNELS 6 Xposition Yposition Zposition Zrotation Xrotation Yrotation
            End Site
            {
              OFFSET 0.000 -13.010 -0.000
            }
          }
        }
      }
    }
    JOINT Neck
    {
      OFFSET -0.000 16.511 0.000
    CHANNELS 6 Xposition Yposition Zposition Zrotation Xrotation Yrotation
      JOINT Head
      {
        OFFSET -0.000 12.493 -0.000
    CHANNELS 6 Xposition Yposition Zposition Zrotation Xrotation Yrotation
        End Site
        {
          OFFSET -0.000 8.328 -0.000
        }
      }
    }
  }
}
MOTION
Frames:	11
Frame Time:	0.0333333
9.90092 30.2347 -168.193 -0.108439 -5.16635 2.37483 8.88869 -1.10488e-06 5.68598e-06 -3.27104 19.0856 1.0706 6.04629e-07 -38.5191 -2.41253e-06 1.03627 13.1698 0.468348 7.14784e-07 -37.1267 1.06512e-06 -1.61918e-08 5.46856e-07 -8.87152e-08 -8.88869 9.47382e-07 5.75083e-06 0.735414 25.7434 -0.319438 2.09372e-08 -38.5191 8.75263e-06 -4.41208 -15.2949 -0.990425 -1.14776e-06 -35.5157 -2.33935e-06 1.74257e-08 -1.25903e-07 -8.30489e-09 -4.22217e-07 19.2591 5.48672e-06 -3.86004e-09 -6.0887e-07 -3.10935e-05 0 0 0 0 0 0 15.534 19.2591 1.85172e-06 10.9607 11.1297 52.8239 -9.89008e-07 -27.4637 -2.64614e-06 -21.0132 -2.71462 1.11153 -1.33455e-07 -25.3056 7.0763e-06 1.34752e-07 3.75773e-07 2.88273e-08 0 0 0 0 0 0 -15.534 19.2591 1.98032e-06 -56.6549 -29.8811 22.6045 -1.15222e-06 -19.0145 -4.69862e-06 -105.972 -19.6332 -140.467 3.95838e-08 -24.3087 6.00527e-06 -1.79045e-08 8.01079e-07 1.12848e-08 -1.89085e-07 19.2591 1.92396e-06 -0.69948 -2.37198 -0.0289498 6.3018e-07 19.7014 -1.56524e-06 1.99047e-08 2.27705e-07 -5.72862e-07 
9.99258 30.3747 -168.096 -0.0859346 -5.32222 2.48305 8.88876 -2.60071e-06 -1.03261e-05 -3.51759 19.5351 1.17754 -1.92789e-07 -38.5191 2.28585e-06 1.45658 12.5549 0.40408 7.14784e-07 -37.1267 1.06512e-06 -1.61918e-08 5.46856e-07 -8.87152e-08 -8.88876 2.14259e-06 -1.02829e-05 0.212467 26.5223 -0.0948831 -2.84784e-07 -38.5191 -5.6999e-06 -3.41412 -16.4965 -0.916369 -1.14776e-06 -35.5157 -2.33935e-06 1.74257e-08 -1.25903e-07 -8.30489e-09 1.98779e-07 19.2593 -1.02781e-05 -2.27231e-06 -3.955e-07 2.69232e-05 0 0 0 0 0 0 15.5342 19.2593 -5.48208e-06 10.7064 11.0752 53.3037 4.28689e-06 -27.5704 -4.56102e-06 -20.45 -2.48398 1.16725 -5.85153e-06 -25.3024 -3.63234e-06 -6.75238e-08 -2.93067e-07 -2.96324e-08 0 0 0 0 0 0 -15.5342 19.2593 -5.53453e-06 -56.5137 -28.5839 22.1057 -1.55498e-06 -19.4469 -3.84376e-06 -101.852 -10.9633 -153.833 4.58497e-07 -24.2034 -6.80165e-06 3.23921e-07 -1.15429e-07 3.55809e-08 -2.65475e-07 19.2593 -5.48343e-06 -0.551419 -2.24035 -0.0215564 -3.49076e-07 19.6679 -8.01051e-06 -6.00436e-08 -2.29223e-07 9.67121e-07 
10.1199 30.504 -168.087 -0.0396596 -5.35914 2.70215 8.88887 -2.37686e-07 -3.90709e-06 -3.67698 19.7109 1.24166 1.17901e-06 -38.5191 9.46495e-07 1.67599 12.1356 0.375426 7.14784e-07 -37.1267 1.06512e-06 -1.61918e-08 5.46856e-07 -8.87152e-08 -8.88887 -2.19346e-07 -3.94352e-06 -0.105021 27.4445 0.048403 3.46705e-07 -38.5191 -4.21973e-06 -2.93025 -18.3906 -0.954676 -1.14776e-06 -35.5157 -2.33935e-06 1.74257e-08 -1.25903e-07 -8.30489e-09 8.77171e-07 19.2594 -3.96884e-06 3.36855e-09 -1.05626e-07 -4.75294e-06 0 0 0 0 0 0 15.5342 19.2594 -4.84896e-06 10.423 10.8557 53.5632 1.05968e-05 -27.6743 -3.79597e-06 -20.7149 -2.70911 1.04087 -5.06804e-06 -25.2955 1.43144e-06 3.5281e-07 1.51682e-07 -4.67006e-16 0 0 0 0 0 0 -15.5342 19.2594 -4.78521e-06 -55.4689 -28.0328 22.5048 1.54489e-06 -19.5694 2.52723e-06 -98.9482 -2.60735 173.1 5.75715e-06 -24.2488 -5.91718e-06 -3.9725e-07 -6.42155e-08 6.56197e-09 5.74223e-07 19.2594 -4.82609e-06 -0.569642 -2.17508 -0.0216198 -3.16226e-07 19.6335 -3.58421e-06 -7.99105e-09 -2.25039e-07 2.61316e-07 
10.2532 30.6619 -168.136 -0.0373402 -5.26969 2.82137 8.88887 -1.40197e-06 6.75104e-06 -3.88981 19.51 1.30085 8.23371e-07 -38.5191 1.81368e-06 1.99215 12.1564 0.352607 7.14784e-07 -37.1267 1.06512e-06 -1.61918e-08 5.46856e-07 -8.87152e-08 -8.88887 4.1658e-06 6.40661e-06 -0.246421 26.8503 0.111291 -7.70309e-08 -38.5191 -5.86667e-06 -2.80113 -17.3258 -0.900416 -1.14776e-06 -35.5157 -2.33935e-06 1.74257e-08 -1.25903e-07 -8.30489e-09 5.42062e-07 19.2594 6.44259e-06 -2.23772e-08 -3.71481e-07 7.13495e-06 0 0 0 0 0 0 15.5342 19.2594 7.52751e-06 10.1022 10.5724 53.8361 -3.42025e-06 -27.7551 -6.33939e-07 -20.45 -2.75417 1.00555 2.08931e-06 -25.3124 3.05033e-06 -1.76869e-07 1.81869e-08 -8.35505e-07 0 0 0 0 0 0 -15.5342 19.2594 7.64165e-06 -54.6077 -27.338 22.7118 6.32963e-07 -19.7482 6.86169e-07 -97.3231 4.07037 139.556 2.06781e-06 -24.3938 -6.22181e-07 -3.29236e-07 -5.53336e-07 2.1635e-07 8.85978e-07 19.2594 7.64098e-06 -0.544338 -2.29574 -0.0218047 -5.04147e-07 19.6316 8.88952e-07 -2.62768e-08 -2.28129e-07 5.94624e-07 
10.26 30.5516 -168.288 0.0322547 -4.83439 2.91837 8.88892 -5.37774e-08 -4.84912e-06 -4.29002 18.7315 1.37998 3.6298e-07 -38.5191 1.72777e-05 2.73265 12.7094 0.2926 7.14784e-07 -37.1267 1.06512e-06 -1.61918e-08 5.46856e-07 -8.87152e-08 -8.88892 2.09265e-06 -5.19621e-06 -0.518072 25.8963 0.226266 -2.36729e-07 -38.5191 -3.77302e-06 -2.39433 -16.3962 -0.808038 -1.14776e-06 -35.5157 -2.33935e-06 1.74257e-08 -1.25903e-07 -8.30489e-09 6.30242e-07 19.2589 -5.3261e-06 2.25672e-06 -6.24974e-07 5.94947e-06 0 0 0 0 0 0 15.5343 19.2589 5.63882e-06 10.1282 10.2034 53.111 6.25094e-06 -27.6783 4.46441e-06 -20.4821 -2.8938 1.00986 1.04471e-06 -25.3068 6.27292e-06 -1.70656e-07 7.00924e-08 -2.35082e-06 0 0 0 0 0 0 -15.5343 19.2589 5.63112e-06 -54.6635 -27.3251 22.6612 -2.51153e-06 -19.5902 -2.22288e-06 -96.5532 8.67512 124.423 -4.01095e-07 -24.6291 1.47531e-06 1.78529e-07 1.39478e-07 -7.06658e-08 -4.05686e-07 19.2589 5.62527e-06 -0.531473 -1.98568 -0.0184156 2.60195e-07 19.6424 -3.00686e-06 -1.92091e-08 -7.18217e-09 -1.92946e-07 
10.202 30.4514 -168.325 0.0966785 -4.65301 2.98036 8.88894 -3.67629e-06 -4.15419e-06 -4.28318 18.3469 1.35048 8.81705e-07 -38.5191 2.18002e-07 2.73748 13.1574 0.302247 7.14784e-07 -37.1267 1.06512e-06 -1.61918e-08 5.46856e-07 -8.87152e-08 -8.88894 -9.19065e-07 -3.8561e-06 -0.452916 25.1949 0.192806 -4.06635e-09 -38.5191 -7.14325e-06 -2.54056 -15.2507 -0.776715 -1.14776e-06 -35.5157 -2.33935e-06 1.74257e-08 -1.25903e-07 -8.30489e-09 -1.05262e-06 19.2591 -3.70322e-06 -2.2456e-06 4.67993e-07 -1.97654e-05 0 0 0 0 0 0 15.5343 19.2591 7.5106e-06 10.2979 9.77283 51.898 -4.07273e-06 -27.5517 3.11103e-07 -20.1166 -2.7809 1.15817 -5.18104e-06 -25.3224 -8.09521e-06 -1.02731e-07 -2.13317e-07 1.39468e-06 0 0 0 0 0 0 -15.5343 19.2591 7.31801e-06 -54.483 -27.0447 22.6339 1.40891e-06 -19.3314 1.1847e-06 -97.4466 9.59989 125.185 7.92821e-07 -24.7853 3.91485e-07 -9.21762e-08 -2.87149e-07 2.90863e-08 1.00706e-06 19.2591 7.37474e-06 -0.580042 -1.82656 -0.018489 -9.81731e-07 19.6262 3.23717e-06 2.63034e-08 1.84418e-08 1.74854e-08 
10.2598 30.4115 -168.393 0.164173 -4.47411 2.87814 8.88896 -1.64831e-07 1.92266e-06 -4.24347 17.9996 1.31345 -1.6725e-06 -38.5191 6.22836e-07 2.30447 13.4674 0.403244 7.14784e-07 -37.1267 1.06512e-06 -1.61918e-08 5.46856e-07 -8.87152e-08 -8.88896 2.99629e-06 1.99282e-06 -0.585568 25.2563 0.249846 2.05112e-07 -38.5191 7.68047e-07 -2.64689 -15.9363 -0.872988 -1.14776e-06 -35.5157 -2.33935e-06 1.74257e-08 -1.25903e-07 -8.30489e-09 -1.04702e-06 19.2592 2.01826e-06 -2.24658e-06 1.11339e-07 -1.7313e-05 0 0 0 0 0 0 15.5343 19.2592 7.54847e-07 10.1794 9.59026 51.8797 -4.60481e-06 -27.5089 -6.25281e-06 -20.3035 -2.90346 1.11866 4.81943e-06 -25.3157 4.55089e-07 1.47471e-08 -2.22325e-08 2.86116e-18 0 0 0 0 0 0 -15.5343 19.2592 9.63066e-07 -55.0291 -27.1274 22.3316 -4.16475e-07 -19.2223 2.92798e-06 -98.6244 8.00706 131.894 -1.02546e-05 -24.8258 -3.77738e-06 4.33904e-07 4.22709e-08 -1.77111e-07 1.06008e-06 19.2592 8.8756e-07 -0.445435 -1.71523 -0.0133326 -2.81349e-07 19.6455 1.73759e-06 -9.76321e-09 -2.77975e-08 -4.04438e-07 
10.1965 30.5051 -168.208 0.163897 -4.88732 2.52447 8.88896 -2.24687e-07 1.57409e-05 -4.48417 17.9735 1.38627 8.21087e-07 -38.5191 3.77352e-06 2.66073 14.6482 0.40577 7.14784e-07 -37.1267 1.06512e-06 -1.61918e-08 5.46856e-07 -8.87152e-08 -8.88896 4.26854e-06 1.56457e-05 -1.21076 26.0613 0.531983 -2.37003e-07 -38.5191 -2.70723e-06 -1.4002 -16.6271 -0.712279 -1.14776e-06 -35.5157 -2.33935e-06 1.74257e-08 -1.25903e-07 -8.30489e-09 -4.33158e-07 19.2588 1.57386e-05 2.24946e-06 -3.70138e-08 5.76123e-07 0 0 0 0 0 0 15.534 19.2588 1.59541e-05 10.1932 9.88328 52.4674 1.21254e-06 -27.4142 -2.82375e-06 -20.3952 -3.2398 0.973984 -1.2289e-05 -25.3379 3.51102e-06 -2.94088e-08 4.45158e-08 1.14245e-17 0 0 0 0 0 0 -15.534 19.2588 1.58513e-05 -53.8784 -28.1601 23.6143 -5.92917e-07 -18.9698 -2.01704e-06 -100.915 4.45493 147.502 -1.11318e-05 -24.8897 -2.88766e-06 5.18856e-08 1.07489e-07 -5.24587e-07 6.13755e-07 19.2588 1.5886e-05 -0.559152 -1.96161 -0.0191401 -6.96834e-09 19.6494 -2.73571e-06 3.63207e-08 -8.59055e-09 -4.28919e-07 
10.4477 30.5703 -168.345 0.461045 -4.65699 2.24601 8.88881 -2.84197e-07 -4.66837e-07 -4.81362 18.4217 1.52437 2.14885e-07 -38.5191 -5.33797e-06 1.9796 12.9557 0.580331 7.14784e-07 -37.1267 1.06512e-06 -1.61918e-08 5.46856e-07 -8.87152e-08 -8.88881 -7.19522e-07 -3.95409e-07 -1.27638 26.3343 0.56629 -1.43372e-07 -38.5191 -4.78397e-06 -2.72236 -18.0549 -1.19991 -1.14776e-06 -35.5157 -2.33935e-06 1.74257e-08 -1.25903e-07 -8.30489e-09 -1.01936e-06 19.2587 -4.4803e-07 2.2674e-06 -6.07553e-07 2.29699e-06 0 0 0 0 0 0 15.5338 19.2587 -9.47886e-08 9.61456 9.69433 53.6739 -3.31402e-06 -27.5291 -2.64164e-07 -20.5278 -3.02185 0.974558 3.40681e-06 -25.3519 -1.36383e-06 -1.58139e-07 -1.68095e-07 -7.9976e-08 0 0 0 0 0 0 -15.5338 19.2587 -8.31887e-08 -53.7133 -28.716 24.0167 -2.24582e-06 -18.7624 6.62353e-06 -104.409 -1.92039 173.04 -6.85612e-06 -24.7811 5.96573e-06 4.27719e-07 -8.7535e-08 -2.17201e-08 -7.38207e-07 19.2587 -9.63389e-08 -0.650677 -1.70303 -0.019338 5.61886e-07 19.6544 1.08553e-06 2.08527e-08 -2.28461e-08 8.27128e-08 
10.5454 30.4421 -168.119 0.676343 -5.05695 2.03901 8.88865 -6.10306e-07 -1.58983e-06 -5.77494 18.0555 1.79538 4.81654e-07 -38.5191 -2.01918e-06 3.23707 15.0028 0.583403 7.14784e-07 -37.1267 1.06512e-06 -1.61918e-08 5.46856e-07 -8.87152e-08 -8.88865 1.13292e-06 -1.67356e-06 -1.92379 25.3583 0.824169 -3.14862e-07 -38.5191 -4.2396e-06 -2.1033 -14.5572 -0.966949 -1.14776e-06 -35.5157 -2.33935e-06 1.74257e-08 -1.25903e-07 -8.30489e-09 -6.87163e-07 19.2585 -1.65385e-06 -2.32115e-06 1.84543e-07 2.46349e-05 0 0 0 0 0 0 15.5339 19.2585 2.74406e-06 9.49055 10.078 54.7344 -8.9583e-06 -27.4223 -1.42982e-07 -19.8915 -2.15858 1.22745 1.13678e-05 -25.4036 -8.69196e-06 2.50183e-07 -5.55599e-08 1.16531e-06 0 0 0 0 0 0 -15.5339 19.2585 2.67653e-06 -54.2141 -29.7189 24.1789 2.0734e-06 -18.3292 5.48779e-06 -107.325 -10.8626 -161.314 4.26921e-06 -24.4549 7.88154e-08 -2.06607e-07 -3.19865e-08 1.08813e-06 4.80308e-08 19.2585 2.67736e-06 -0.643772 -2.09871 -0.0235762 4.95385e-07 19.5676 -3.0637e-06 -3.52826e-09 -2.6917e-10 -4.28298e-07 
10.5544 30.4496 -168.059 0.679478 -5.19933 2.01163 8.8887 -3.66655e-06 -8.47989e-07 -6.24702 18.6979 2.0098 9.81647e-07 -38.5191 2.965e-06 4.14879 13.9832 0.427172 7.14784e-07 -37.1267 1.06512e-06 -1.61918e-08 5.46856e-07 -8.87152e-08 -8.8887 1.53335e-06 -8.72988e-07 -2.24776 26.2044 0.992958 -2.5507e-09 -38.5191 7.77061e-06 -1.48659 -16.0596 -0.970242 -1.14776e-06 -35.5157 -2.33935e-06 1.74257e-08 -1.25903e-07 -8.30489e-09 -5.57015e-07 19.2589 -9.9312e-07 -2.25158e-06 -2.86661e-07 7.16919e-06 0 0 0 0 0 0 15.5341 19.2589 2.04841e-06 9.50997 10.0446 54.6283 -5.28431e-06 -27.2584 -5.18852e-06 -20.9472 -2.93307 0.925066 -5.38497e-06 -25.4311 6.00926e-06 1.41212e-08 3.90681e-07 -1.40894e-06 0 0 0 0 0 0 -15.5341 19.2589 2.27147e-06 -53.2506 -30.3095 25.1309 -8.83285e-07 -18.0247 -4.06992e-06 -112.678 -20.2572 -148.977 -1.18143e-06 -24.3835 9.97445e-06 -2.03178e-07 -3.74286e-07 3.89105e-08 -2.52013e-07 19.2589 2.15345e-06 -0.532964 -2.16563 -0.0201396 -6.21591e-08 19.5823 -3.79766e-06 1.26263e-08 -1.32207e-09 -5.85703e-07 
